<svg width="17" height="14" viewBox="0 0 17 14" fill="none" xmlns="http://www.w3.org/2000/svg">
<g clip-path="url(#clip0_30_314)">
<path d="M10.3889 6.125H9.01649C7.68837 6.125 6.61111 7.12305 6.61111 8.35352C6.61111 8.96328 6.9151 9.29141 7.17778 9.46094C7.37847 9.58945 7.55556 9.78906 7.55556 10.016C7.55556 10.284 7.31944 10.5027 7.03021 10.5027H6.95642C6.88559 10.5027 6.81476 10.4918 6.74688 10.4645C6.22153 10.2484 3.77778 9.11641 3.77778 6.5625C3.77778 4.38867 5.68142 2.625 8.02778 2.625H10.3889V0.948828C10.3889 0.423828 10.8464 0 11.413 0C11.6668 0 11.9089 0.0875 12.0977 0.243359L16.1766 3.64492C16.4009 3.83086 16.5278 4.09609 16.5278 4.375C16.5278 4.65391 16.4009 4.91914 16.1766 5.10508L12.0741 8.52578C11.9 8.6707 11.6757 8.75 11.4425 8.75H11.3333C10.8109 8.75 10.3889 8.35898 10.3889 7.875V6.125ZM2.36111 2.625C2.10139 2.625 1.88889 2.82188 1.88889 3.0625V11.8125C1.88889 12.0531 2.10139 12.25 2.36111 12.25H11.8056C12.0653 12.25 12.2778 12.0531 12.2778 11.8125V10.5C12.2778 10.016 12.6998 9.625 13.2222 9.625C13.7446 9.625 14.1667 10.016 14.1667 10.5V11.8125C14.1667 13.0211 13.1101 14 11.8056 14H2.36111C1.0566 14 0 13.0211 0 11.8125V3.0625C0 1.85391 1.0566 0.875 2.36111 0.875H3.77778C4.30017 0.875 4.72222 1.26602 4.72222 1.75C4.72222 2.23398 4.30017 2.625 3.77778 2.625H2.36111Z" fill="white"/>
</g>
<defs>
<clipPath id="clip0_30_314">
<rect width="17" height="14" fill="white"/>
</clipPath>
</defs>
</svg>
