<svg width="14" height="17" viewBox="0 0 14 17" fill="none" xmlns="http://www.w3.org/2000/svg">
<g clip-path="url(#clip0_61_34)">
<path d="M7.12499 4.83741C5.19289 4.83741 3.63445 6.41549 3.63445 8.37194C3.63445 10.3284 5.19289 11.9065 7.12499 11.9065C9.05709 11.9065 10.6155 10.3284 10.6155 8.37194C10.6155 6.41549 9.05709 4.83741 7.12499 4.83741ZM7.12499 10.6698C5.87642 10.6698 4.85569 9.63932 4.85569 8.37194C4.85569 7.10455 5.87338 6.07404 7.12499 6.07404C8.3766 6.07404 9.3943 7.10455 9.3943 8.37194C9.3943 9.63932 8.37356 10.6698 7.12499 10.6698ZM11.5725 4.69283C11.5725 5.15118 11.2079 5.51725 10.7583 5.51725C10.3057 5.51725 9.94415 5.14811 9.94415 4.69283C9.94415 4.23756 10.3087 3.86842 10.7583 3.86842C11.2079 3.86842 11.5725 4.23756 11.5725 4.69283ZM13.8843 5.52955C13.8327 4.42521 13.5835 3.44698 12.7846 2.64103C11.9887 1.83507 11.0226 1.58282 9.932 1.52745C8.80798 1.46285 5.43896 1.46285 4.31494 1.52745C3.22738 1.57975 2.26133 1.83199 1.46236 2.63795C0.663395 3.44391 0.417325 4.42213 0.362643 5.52648C0.298848 6.66466 0.298848 10.0761 0.362643 11.2143C0.414287 12.3187 0.663395 13.2969 1.46236 14.1028C2.26133 14.9088 3.22434 15.161 4.31494 15.2164C5.43896 15.281 8.80798 15.281 9.932 15.2164C11.0226 15.1641 11.9887 14.9119 12.7846 14.1028C13.5805 13.2969 13.8296 12.3187 13.8843 11.2143C13.9481 10.0761 13.9481 6.66774 13.8843 5.52955ZM12.4322 12.4356C12.1952 13.0385 11.7365 13.503 11.138 13.746C10.2419 14.1059 8.11534 14.0229 7.12499 14.0229C6.13464 14.0229 4.00508 14.1028 3.11194 13.746C2.51651 13.5061 2.05779 13.0416 1.81779 12.4356C1.46236 11.5281 1.54438 9.37477 1.54438 8.37194C1.54438 7.3691 1.4654 5.21271 1.81779 4.30831C2.05475 3.70538 2.51347 3.24088 3.11194 2.99786C4.00811 2.63795 6.13464 2.72101 7.12499 2.72101C8.11534 2.72101 10.2449 2.64103 11.138 2.99786C11.7335 3.23781 12.1922 3.70231 12.4322 4.30831C12.7876 5.21578 12.7056 7.3691 12.7056 8.37194C12.7056 9.37477 12.7876 11.5312 12.4322 12.4356Z" fill="#003C5A"/>
</g>
<defs>
<clipPath id="clip0_61_34">
<rect width="13.6098" height="15.75" fill="white" transform="translate(0.317074 0.5)"/>
</clipPath>
</defs>
</svg>
