<svg width="16" height="18" viewBox="0 0 16 18" fill="none" xmlns="http://www.w3.org/2000/svg">
<g clip-path="url(#clip0_61_38)">
<path d="M16 7.3793C14.4271 7.38261 12.893 6.8993 11.6143 5.99766V12.2836C11.6139 13.4478 11.2525 14.5841 10.5783 15.5406C9.90406 16.4971 8.94925 17.2281 7.84153 17.636C6.73381 18.0438 5.526 18.109 4.37962 17.8228C3.23325 17.5366 2.20296 16.9127 1.42657 16.0345C0.650172 15.1563 0.164676 14.0657 0.0350123 12.9086C-0.0946517 11.7514 0.137698 10.5828 0.700986 9.55918C1.26427 8.53552 2.13164 7.70556 3.1871 7.18031C4.24255 6.65505 5.43576 6.45954 6.60715 6.61992V9.78047C6.07153 9.61449 5.49633 9.61935 4.96368 9.79434C4.43103 9.96934 3.96817 10.3055 3.64118 10.7549C3.31419 11.2043 3.1398 11.7439 3.1429 12.2966C3.14601 12.8493 3.32645 13.387 3.65846 13.8328C3.99048 14.2786 4.45709 14.6097 4.99167 14.7789C5.52625 14.9481 6.10147 14.9467 6.63519 14.7749C7.16892 14.6031 7.63385 14.2697 7.96362 13.8223C8.29338 13.3749 8.47111 12.8364 8.47143 12.2836V0H11.6143C11.6125 0.261655 11.6352 0.522915 11.6821 0.780469C11.7914 1.35457 12.0185 1.9007 12.3495 2.38549C12.6805 2.87028 13.1084 3.28353 13.6071 3.6C14.3171 4.06155 15.1492 4.3073 16 4.30664V7.3793Z" fill="#003C5A"/>
</g>
<defs>
<clipPath id="clip0_61_38">
<rect width="16" height="18" fill="white"/>
</clipPath>
</defs>
</svg>
