<svg width="17" height="14" viewBox="0 0 17 14" fill="none" xmlns="http://www.w3.org/2000/svg">
<g clip-path="url(#clip0_122_2)">
<path d="M5.47519 0.67254C5.21953 0.163947 4.54551 -0.106757 3.90137 0.0381654L0.979492 0.694415C0.401758 0.825665 0 1.2577 0 1.74988C0 8.51473 6.66055 13.9999 14.875 13.9999C15.4727 13.9999 15.9973 13.669 16.1566 13.1932L16.9535 10.787C17.1295 10.2565 16.8008 9.70145 16.1832 9.4909L12.9957 8.39715C12.4545 8.21121 11.827 8.33973 11.4584 8.71434L10.117 10.0624C7.77949 9.15184 5.88691 7.59324 4.78125 5.66824L6.41816 4.56629C6.87305 4.26004 7.0291 3.74598 6.80332 3.30027L5.47519 0.675275V0.67254Z" fill="white"/>
</g>
<defs>
<clipPath id="clip0_122_2">
<rect width="17" height="14" fill="white"/>
</clipPath>
</defs>
</svg>
